<?xml version="1.0" encoding="UTF-8"?>
<svg width="38px" height="38px" viewBox="0 0 38 38" version="1.1" xmlns="http://www.w3.org/2000/svg" xmlns:xlink="http://www.w3.org/1999/xlink">
    <!-- Generator: Sketch 56.3 (81716) - https://sketch.com -->
    <title>ic_delete</title>
    <desc>Created with Sketch.</desc>
    <g id="ic_delete" stroke="none" stroke-width="1" fill="none" fill-rule="evenodd">
        <g id="Group-4-Copy-14" transform="translate(9.000000, 7.000000)" fill="#000000">
            <g id="Group-3">
                <g id="Group-14-Copy">
                    <g id="Group-6">
                        <g id="Group-11">
                            <polygon id="Line-5" fill-rule="nonzero" points="0.093864733 4.2 18.1243335 4.2 18.1243335 2.52 0.093864733 2.52"></polygon>
                            <circle id="Oval" cx="9.05495848" cy="1.68" r="1.68"></circle>
                            <path d="M1.96124414,23.52 L15.4830271,23.52 L18.25999,5.04 L-1.50990331e-13,5.04 L1.96124414,23.52 Z M1.86772947,6.72 L16.308677,6.72 L14.0366164,21.84 L3.47238376,21.84 L1.86772947,6.72 Z" id="Path-4" fill-rule="nonzero"></path>
                            <path d="M10.3149585,10.5472363 L10.3149585,17.781709 C10.3149585,18.2456282 10.6910393,18.621709 11.1549585,18.621709 C11.6188777,18.621709 11.9949585,18.2456282 11.9949585,17.781709 L11.9949585,10.5472363 C11.9949585,10.0833171 11.6188777,9.70723633 11.1549585,9.70723633 C10.6910393,9.70723633 10.3149585,10.0833171 10.3149585,10.5472363 Z" id="Line-3" fill-rule="nonzero"></path>
                            <path d="M5.69495848,10.5472363 L5.69495848,17.781709 C5.69495848,18.2456282 6.07103929,18.621709 6.53495848,18.621709 C6.99887767,18.621709 7.37495848,18.2456282 7.37495848,17.781709 L7.37495848,10.5472363 C7.37495848,10.0833171 6.99887767,9.70723633 6.53495848,9.70723633 C6.07103929,9.70723633 5.69495848,10.0833171 5.69495848,10.5472363 Z" id="Line-3-Copy" fill-rule="nonzero"></path>
                        </g>
                    </g>
                </g>
            </g>
        </g>
    </g>
</svg>