<?xml version="1.0" encoding="UTF-8"?>
<svg width="76px" height="76px" viewBox="0 0 76 76" version="1.1" xmlns="http://www.w3.org/2000/svg" xmlns:xlink="http://www.w3.org/1999/xlink">
    <!-- Generator: Sketch 59 (86127) - https://sketch.com -->
    <title>ic_departamento on</title>
    <desc>Created with Sketch.</desc>
    <g id="ic_departamento-on" stroke="none" stroke-width="1" fill="none" fill-rule="evenodd">
        <path d="M35.4846966,17.0838323 C46.9238982,15.8298046 50.4179525,28.9787421 48.96264,34.1867278 C48.4600776,35.985199 46.6924347,34.4812718 45.2975078,36.9853468 C44.3675565,38.6547301 43.6562664,39.9723365 43.1636375,40.938166 C43.0873611,40.9286886 43.0115516,40.9193296 42.9362092,40.910089 L42.8919804,41.0219983 C39.8704396,40.6427347 37.5813276,40.4531029 36.0246442,40.4531029 C34.4679609,40.4531029 32.1634151,40.6427347 29.1110067,41.0219983 C28.6183778,40.0561689 27.9070877,38.7385625 26.9771365,37.0691791 C25.5822096,34.5651041 23.8145667,36.0690314 23.3120043,34.2705602 C21.9142412,29.268521 25.0821452,16.9411523 35.4699669,17.085082 Z" id="Combined-Shape" fill="#FFFFFF"></path>
        <path d="M27.0088945,54 C24.5214661,54 22.3519649,52.310189 21.7430264,49.8984481 L21.5644523,49.1911935 C21.0708711,47.2363302 20.1293563,45.4230669 18.8143286,43.8947294 C17.3655332,42.2109259 16.7844175,40.7628864 17.0709815,39.5506108 C17.6549529,37.0801872 19.5185583,35.0875534 22.7786238,36.4347586 C24.7912863,37.2664808 26.6960185,39.933991 26.8115521,41.9377149 C26.8831572,43.1795781 24.7912863,44.6488724 26.8115521,43.9016749 C29.3763707,42.953074 32.4391425,42.5695947 35.9998674,42.7512372 C39.5614335,42.5696668 42.6238705,42.9531632 45.1884479,43.9016749 C47.2087137,44.6488724 45.1168428,43.1795781 45.1884479,41.9377149 C45.3039815,39.933991 47.2087137,37.2664808 49.2213762,36.4347586 C52.4814417,35.0875534 54.3450471,37.0801872 54.9290185,39.5506108 C55.2155825,40.7628864 54.6344668,42.2109259 53.1856714,43.8947294 C51.8706437,45.4230669 50.9291289,47.2363302 50.4355477,49.1911935 L50.4355477,49.1911935 L50.2569736,49.8984481 C49.6480351,52.310189 47.4785339,54 44.9911055,54 L44.9911055,54 L27.0088945,54 Z" id="Combined-Shape" fill="#FFFFFF"></path>
        <circle id="Oval" fill="#FFFFFF" cx="27" cy="55" r="2"></circle>
        <circle id="Oval-Copy" fill="#FFFFFF" cx="45" cy="55" r="2"></circle>
    </g>
</svg>