<?xml version="1.0" encoding="UTF-8"?>
<svg width="24px" height="24px" viewBox="0 0 24 24" version="1.1" xmlns="http://www.w3.org/2000/svg" xmlns:xlink="http://www.w3.org/1999/xlink">
    <!-- Generator: Sketch 58 (84663) - https://sketch.com -->
    <title>Shape</title>
    <desc>Created with Sketch.</desc>
    <g id="main" stroke="none" stroke-width="1" fill="none" fill-rule="evenodd">
        <g id="beth_kalan" transform="translate(-829.000000, -3317.000000)" fill="#79A2B5" fill-rule="nonzero">
            <path d="M848.5,3317 L833.5,3317 C831.014154,3317 829,3319.01415 829,3321.5 L829,3336.5 C829,3338.98585 831.014154,3341 833.5,3341 L848.5,3341 C850.985846,3341 853,3338.98585 853,3336.5 L853,3321.5 C853,3319.01415 850.985846,3317 848.5,3317 Z M847.889846,3329.92492 L845.644,3329.92492 L845.644,3338.23631 L841.893538,3338.23631 L841.893538,3329.92492 L840.438769,3329.92492 L840.438769,3327.12523 L841.893538,3327.12523 L841.893538,3325.34185 C841.894462,3323.00369 842.865538,3321.61538 845.620923,3321.61538 L848.413231,3321.61538 L848.413231,3324.40492 L846.791385,3324.40492 C845.718769,3324.40492 845.648615,3324.80462 845.648615,3325.55231 L845.644,3327.12431 L848.195385,3327.12431 L847.889846,3329.92492 Z" id="Shape"></path>
        </g>
    </g>
</svg>