<?xml version="1.0" encoding="UTF-8"?>
<svg width="188px" height="188px" viewBox="0 0 188 188" version="1.1" xmlns="http://www.w3.org/2000/svg" xmlns:xlink="http://www.w3.org/1999/xlink">
    <!-- Generator: Sketch 59 (86127) - https://sketch.com -->
    <title>ic_1</title>
    <desc>Created with Sketch.</desc>
    <defs>
        <circle id="path-1" cx="93.5" cy="94.5" r="55.5"></circle>
        <filter x="-25.2%" y="-18.0%" width="150.5%" height="150.5%" filterUnits="objectBoundingBox" id="filter-2">
            <feOffset dx="0" dy="8" in="SourceAlpha" result="shadowOffsetOuter1"></feOffset>
            <feGaussianBlur stdDeviation="8" in="shadowOffsetOuter1" result="shadowBlurOuter1"></feGaussianBlur>
            <feColorMatrix values="0 0 0 0 0.466666667   0 0 0 0 0.494117647   0 0 0 0 0.6  0 0 0 0.19845389 0" type="matrix" in="shadowBlurOuter1"></feColorMatrix>
        </filter>
    </defs>
    <g id="ic_1" stroke="none" stroke-width="1" fill="none" fill-rule="evenodd">
        <g id="Oval">
            <use fill="black" fill-opacity="1" filter="url(#filter-2)" xlink:href="#path-1"></use>
            <use fill="#79A2B5" fill-rule="evenodd" xlink:href="#path-1"></use>
        </g>
        <g id="iconmonstr-check-mark-6" transform="translate(67.000000, 69.000000)" fill="#FFFFFF" fill-rule="nonzero">
            <path d="M51.5273221,25.9129955 C49.9528786,24.3270205 49.6017754,21.9174746 50.6595012,19.955759 C51.4147042,18.5576544 51.4677009,16.8952206 50.8008257,15.4512407 C50.1361588,14.0094453 48.8289069,12.9564977 47.2655043,12.6069716 C45.0771823,12.1154504 43.4629912,10.276069 43.2841273,8.060947 C43.1538438,6.48152568 42.288231,5.05065297 40.9390234,4.19431389 C39.5942322,3.33579026 37.9204198,3.15010449 36.412222,3.69405457 C34.3011869,4.45208943 31.9384174,3.7639598 30.5781688,1.99885271 C29.6065627,0.740558545 28.0961567,0 26.4930066,0 C24.8920647,0 23.3816588,0.740558545 22.4100526,1.99885271 C21.0564286,3.76614434 18.6936591,4.45427397 16.582624,3.69623911 C15.0766344,3.15447357 13.402822,3.34015934 12.0558226,4.19649842 C10.7088232,5.05283751 9.84100224,6.48371021 9.71292689,8.06313154 C9.53185483,10.2782536 7.91987191,12.1198195 5.7315499,12.6091561 C4.16814729,12.9586823 2.86089539,14.0116298 2.19622846,15.4534252 C1.53156153,16.8952206 1.58455823,18.5598389 2.33976118,19.955759 C3.39748696,21.9152901 3.04638383,24.3270205 1.47414844,25.9129955 C0.350176786,27.0424019 -0.175373809,28.6261923 0.0520703558,30.1946909 C0.279514521,31.7631895 1.23566329,33.1372642 2.63565942,33.9084063 C4.59653727,34.9897529 5.62114011,37.2070594 5.16183539,39.3806752 C4.83723061,40.9316975 5.258996,42.5438869 6.307889,43.741014 C7.35899019,44.9403257 8.91356001,45.5847645 10.5078774,45.4842757 C12.7514043,45.3466498 14.8204837,46.6639265 15.624267,48.7370535 C16.1961897,50.2181706 17.4349875,51.347577 18.9741,51.7932229 C20.508796,52.2388687 22.1693593,51.9505096 23.4589456,51.0133426 C25.2674579,49.6960659 27.7340126,49.6960659 29.5403168,51.0133426 C30.8299031,51.9526942 32.4904663,52.2410533 34.0251624,51.7932229 C35.5642749,51.347577 36.8030727,50.2159861 37.3772036,48.7370535 C38.1787787,46.6639265 40.2500663,45.3444653 42.491385,45.4842757 C44.0901188,45.5847645 45.6424804,44.9403257 46.6913734,43.741014 C47.7402664,42.5438869 48.16424,40.9316975 47.837427,39.3806752 C47.3803305,37.2070594 48.4027251,34.9897529 50.3658112,33.9084063 C51.7635991,33.1350797 52.7175397,31.7631895 52.947192,30.1946909 C53.1768444,28.6261923 52.6490856,27.0424019 51.5273221,25.9129955 Z M24.0813492,37.7419355 L14.3015873,28.109003 L18.337369,24.0099297 L24.0813492,29.5415816 L36.3451706,16.7741935 L40.3809524,20.8732668 L24.0813492,37.7419355 Z" id="Shape"></path>
        </g>
    </g>
</svg>