<?xml version="1.0" encoding="UTF-8"?>
<svg width="188px" height="188px" viewBox="0 0 188 188" version="1.1" xmlns="http://www.w3.org/2000/svg" xmlns:xlink="http://www.w3.org/1999/xlink">
    <!-- Generator: Sketch 59 (86127) - https://sketch.com -->
    <title>ic_2</title>
    <desc>Created with Sketch.</desc>
    <defs>
        <circle id="path-1" cx="93.5" cy="94.5" r="55.5"></circle>
        <filter x="-25.2%" y="-18.0%" width="150.5%" height="150.5%" filterUnits="objectBoundingBox" id="filter-2">
            <feOffset dx="0" dy="8" in="SourceAlpha" result="shadowOffsetOuter1"></feOffset>
            <feGaussianBlur stdDeviation="8" in="shadowOffsetOuter1" result="shadowBlurOuter1"></feGaussianBlur>
            <feColorMatrix values="0 0 0 0 0.466666667   0 0 0 0 0.494117647   0 0 0 0 0.6  0 0 0 0.19845389 0" type="matrix" in="shadowBlurOuter1"></feColorMatrix>
        </filter>
    </defs>
    <g id="ic_2" stroke="none" stroke-width="1" fill="none" fill-rule="evenodd">
        <g id="Oval">
            <use fill="black" fill-opacity="1" filter="url(#filter-2)" xlink:href="#path-1"></use>
            <use fill="#79A2B5" fill-rule="evenodd" xlink:href="#path-1"></use>
        </g>
        <g id="iconmonstr-target-4" transform="translate(67.000000, 72.000000)" fill="#FFFFFF" fill-rule="nonzero">
            <path d="M13.25,22 C13.25,26.8532 17.21175,30.8 22.0833333,30.8 C25.9722083,30.8 29.24275,28.2678 30.4197917,24.7852 L35.331125,21.945 L35.3333333,22 C35.3333333,29.2908 29.40175,35.2 22.0833333,35.2 C14.7649167,35.2 8.83333333,29.2908 8.83333333,22 C8.83333333,14.7092 14.7649167,8.8 22.0833333,8.8 C24.4771667,8.8 26.7164167,9.4424 28.653125,10.5468 L23.7727083,13.3694 C23.2250417,13.2638 22.6619167,13.2 22.0833333,13.2 C17.21175,13.2 13.25,17.1468 13.25,22 Z M22.0833333,17.6 C19.643125,17.6 17.6666667,19.5712 17.6666667,22 C17.6666667,24.4288 19.643125,26.4 22.0833333,26.4 C24.5235417,26.4 26.5,24.4288 26.5,22 L26.4955833,21.967 L33.9155833,17.677 C36.0709167,16.434 39.8869167,16.9378 42.1107083,18.0268 L53,11.7282 L46.0260833,8.2764 L46.3992917,0.286 L35.4790833,6.6 C35.3245,9.0662 33.8581667,12.6192 31.713875,13.8622 L24.2430833,18.183 C23.6026667,17.8244 22.8717083,17.6 22.0833333,17.6 Z M39.7389583,21.8042 L39.75,22 C39.75,31.7042 31.8242917,39.6 22.0833333,39.6 C12.342375,39.6 4.41666667,31.7042 4.41666667,22 C4.41666667,12.2958 12.342375,4.4 22.0833333,4.4 C25.340625,4.4 28.3837083,5.2976 31.0072083,6.8354 C31.7447917,5.5462 31.952375,3.4386 31.329625,2.0394 C28.514,0.7436 25.3892083,0 22.0833333,0 C9.88670833,0 0,9.8494 0,22 C0,34.1506 9.88670833,44 22.0833333,44 C33.6395417,44 43.108875,35.1538 44.0717083,23.8876 C43.407,22.825 41.717625,21.5534 39.7389583,21.8042 Z" id="Shape"></path>
        </g>
    </g>
</svg>