<?xml version="1.0" encoding="UTF-8"?>
<svg width="188px" height="188px" viewBox="0 0 188 188" version="1.1" xmlns="http://www.w3.org/2000/svg" xmlns:xlink="http://www.w3.org/1999/xlink">
    <!-- Generator: Sketch 59 (86127) - https://sketch.com -->
    <title>ic_3</title>
    <desc>Created with Sketch.</desc>
    <defs>
        <circle id="path-1" cx="93.5" cy="94.5" r="55.5"></circle>
        <filter x="-25.2%" y="-18.0%" width="150.5%" height="150.5%" filterUnits="objectBoundingBox" id="filter-2">
            <feOffset dx="0" dy="8" in="SourceAlpha" result="shadowOffsetOuter1"></feOffset>
            <feGaussianBlur stdDeviation="8" in="shadowOffsetOuter1" result="shadowBlurOuter1"></feGaussianBlur>
            <feColorMatrix values="0 0 0 0 0.466666667   0 0 0 0 0.494117647   0 0 0 0 0.6  0 0 0 0.19845389 0" type="matrix" in="shadowBlurOuter1"></feColorMatrix>
        </filter>
    </defs>
    <g id="ic_3" stroke="none" stroke-width="1" fill="none" fill-rule="evenodd">
        <g id="Oval">
            <use fill="black" fill-opacity="1" filter="url(#filter-2)" xlink:href="#path-1"></use>
            <use fill="#79A2B5" fill-rule="evenodd" xlink:href="#path-1"></use>
        </g>
        <g id="iconmonstr-delivery-10-(1)" transform="translate(70.000000, 70.000000)" fill="#FFFFFF">
            <path d="M26.806,48 L0,48 L0,4 L6,4 C8.462,4 10.362,1.832 12,0 L28,0 C29.642,1.832 31.544,4 34,4 L40,4 L40,22.3 C39.03,22.104 38.026,22 37,22 L36,22.032 L36,8 L28,8 L24,12 L16.206,12 L12,8 L4,8 L4,44 L23.732,44 C24.526,45.502 25.57,46.854 26.806,48 Z M37,26 C43.07,26 48,30.928 48,37 C48,43.072 43.07,48 37,48 C30.928,48 26,43.072 26,37 C26,30.928 30.928,26 37,26 Z M37,30 C40.862,30 44,33.136 44,37 C44,40.864 40.862,44 37,44 C33.136,44 30,40.864 30,37 C30,33.136 33.136,30 37,30 Z M42,38 L36,38 L36,32 L38,32 L38,36 L42,36 L42,38 Z M11.698,29.896 L9.6,27.928 L8,29.574 L11.728,33.126 L18,26.742 L16.37,25.126 L11.698,29.896 L11.698,29.896 Z M24,32 L20,32 L20,30 L24,30 L24,32 Z M28,28 L20,28 L20,26 L28,26 L28,28 Z M11.698,19.95 L9.6,17.984 L8,19.63 L11.728,23.182 L18,16.798 L16.37,15.182 L11.698,19.95 Z M28,22 L20,22 L20,20 L28,20 L28,22 Z M28,18 L20,18 L20,16 L28,16 L28,18 Z M18,6 C18,7.104 18.898,8 20,8 C21.106,8 22,7.104 22,6 C22,4.896 21.106,4 20,4 C18.898,4 18,4.896 18,6 Z" id="Shape"></path>
        </g>
    </g>
</svg>