<?xml version="1.0" encoding="UTF-8"?>
<svg width="76px" height="76px" viewBox="0 0 76 76" version="1.1" xmlns="http://www.w3.org/2000/svg" xmlns:xlink="http://www.w3.org/1999/xlink">
    <!-- Generator: Sketch 59 (86127) - https://sketch.com -->
    <title>ic_alimentacao</title>
    <desc>Created with Sketch.</desc>
    <g id="ic_alimentacao" stroke="none" stroke-width="1" fill="none" fill-rule="evenodd">
        <g id="iconmonstr-eat-2" transform="translate(26.000000, 19.000000)" fill="#79A2B5">
            <path d="M21.6685642,39 L21.6670143,39 C20.5588354,39 19.3421634,38.0761064 19.3421634,36.5644282 L19.3421634,22.7628544 C19.3421634,22.7628544 17.5256799,22.7579833 15.5185587,22.7628544 C16.761579,11.4033474 20.3279002,0.0308505766 22.7410954,0.0308505766 C23.433901,0.0308505766 23.9872155,0.610516674 23.9918652,1.41263167 C24.0073642,3.67771348 23.9965149,28.3857779 23.9934151,36.5644282 C23.9934151,37.9088638 22.9518819,39 21.6685642,39 L21.6685642,39 Z M3.83695791,18.7863775 C3.83695791,17.6643907 3.16585095,17.2974312 1.70274479,16.069903 C0.622464081,15.1606228 -0.121488203,13.74312 0.0164529493,12.2996378 C0.407027899,8.18027395 1.35246726,0 1.35246726,0 L2.28240762,0 L2.28240762,9.74228736 L3.83695791,9.74228736 L4.18258574,0 L5.1233754,0 L5.3915082,9.74228736 L6.9460585,9.74228736 L7.32113444,0 L8.19217858,0 L8.50060879,9.74228736 L10.0551591,9.74228736 L10.0551591,0 L10.9060545,0 C10.9060545,0 11.9506875,8.12669137 12.38001,12.2590449 C12.5319002,13.7236355 11.7461006,15.1687414 10.6410215,16.0845164 C9.17016585,17.3039261 8.50060879,17.6546484 8.50060879,18.794496 L8.50060879,36.5335776 C8.50060879,37.8780132 7.4575257,38.9691494 6.1680084,38.9691494 C4.88004101,38.9691494 3.83695791,37.8780132 3.83695791,36.5335776 L3.83695791,18.7863775 Z" id="Shape"></path>
        </g>
    </g>
</svg>