<?xml version="1.0" encoding="UTF-8"?>
<svg width="76px" height="76px" viewBox="0 0 76 76" version="1.1" xmlns="http://www.w3.org/2000/svg" xmlns:xlink="http://www.w3.org/1999/xlink">
    <!-- Generator: Sketch 59 (86127) - https://sketch.com -->
    <title>ic_emporio</title>
    <desc>Created with Sketch.</desc>
    <g id="ic_emporio" stroke="none" stroke-width="1" fill="none" fill-rule="evenodd">
        <g id="iconmonstr-beer-3" transform="translate(22.000000, 21.000000)" fill="#79A2B5" fill-rule="nonzero">
            <path d="M22.6669336,11.9736667 C24.2337854,11.1321667 25.0384615,9.4775 25.0384615,7.57633333 C25.0384615,4.9215 22.951687,2.74408333 20.3350728,2.59675 C19.24706,1.08375 17.1886191,0 15.0380938,0 C13.6624942,0 12.5163974,0.456166667 11.3802174,1.36566667 C9.54986247,0.767833333 7.48858819,1.16308333 6.00390404,2.48766667 C2.95095142,2.00316667 0,4.25 0,7.44741667 C0,9.42508333 1.16026366,11.1038333 2.8333667,11.9099167 L2.8333667,30.0673333 C2.8333667,31.008 2.3573611,31.7715833 1.41668335,31.7715833 L1.41668335,34 L24.083617,34 L24.083617,31.7715833 C23.1429392,31.7715833 22.6669336,31.008 22.6669336,30.0673333 L22.6669336,11.9736667 Z M9.53846154,29.3103448 L7.15384615,29.3103448 L7.15384615,11.7241379 C7.95507692,12.3076256 8.96138462,12.2855028 9.53846154,12.0933114 L9.53846154,29.3103448 Z M19.9365525,10.6402199 C19.0592388,10.6402199 18.2798709,10.2107977 17.7831462,9.54345242 L17.152096,10.0018896 C15.0224766,11.7108739 16.9939837,14.7937191 17.1381038,16.2749355 C17.2808247,17.6923189 16.4314955,18.7586207 15.0980347,18.7586207 C13.796756,18.7586207 13.0341788,17.6183307 13.1377214,16.2749355 C13.2468609,14.8561014 15.3233098,12.0416451 13.0215858,9.83650406 L12.149869,9.01247767 C11.5551986,9.73350076 10.6722881,10.191938 9.68583492,10.191938 C8.83930419,10.191938 8.0697308,9.85681457 7.49185115,9.30552931 C6.99652573,10.0120449 6.19477018,10.4719329 5.2880728,10.4719329 C1.48777948,10.4719329 1.34645782,4.82996349 5.2880728,4.82996349 C5.84496409,4.82996349 6.36547555,5.00405357 6.79503742,5.30290821 C7.33233957,4.21339445 8.42233534,3.46625786 9.6844357,3.46625786 C10.5113773,3.46625786 11.2669584,3.7883245 11.8392412,4.31639775 C12.530458,3.1354867 13.784163,2.34482759 15.2141703,2.34482759 C16.9701969,2.34482759 18.4603708,3.53444314 18.9710877,5.18104515 C19.2691225,5.06208359 19.5937425,4.99825057 19.9351533,4.99825057 C21.4351217,4.99825057 22.6538462,6.2618544 22.6538462,7.81850987 C22.6538462,9.37516534 21.4379202,10.6402199 19.9365525,10.6402199 L19.9365525,10.6402199 Z M31,17.9482312 C31,21.6638204 28.4374923,26.3628189 23.8461538,28.137931 L23.8461538,24.9769729 C28.3588,22.2989389 29.5248769,15.8233648 26.0681385,15.8233648 L23.8461538,15.8233648 L23.8461538,12.8965517 L26.5817846,12.8965517 C29.6493538,12.8965517 31,15.1414174 31,17.9482312 Z" id="Shape"></path>
        </g>
    </g>
</svg>