<?xml version="1.0" encoding="UTF-8"?>
<svg width="76px" height="76px" viewBox="0 0 76 76" version="1.1" xmlns="http://www.w3.org/2000/svg" xmlns:xlink="http://www.w3.org/1999/xlink">
    <!-- Generator: Sketch 59 (86127) - https://sketch.com -->
    <title>ic_otica</title>
    <desc>Created with Sketch.</desc>
    <g id="ic_otica" stroke="none" stroke-width="1" fill="none" fill-rule="evenodd">
        <g id="iconmonstr-glasses-7" transform="translate(13.000000, 30.000000)" fill="#79A2B5" fill-rule="nonzero">
            <path d="M36.1380359,0 C29.5314779,0 28.9414608,1.868 24.4989792,1.846 C20.0564976,1.868 19.4746469,0 12.8599225,0 C8.53381109,0 3.8830882,0.664 0,1.43 L0,4.354 C0.669638765,4.906 2.03954002,5.248 2.04362318,7.19 C2.05587267,14.844 5.28565476,15.964 11.4410233,16 C19.7094288,16 20.8261739,14.146 22.2062831,7.704 C22.5125203,6.274 23.2536144,5.408 24.4969376,5.408 C25.7402608,5.408 26.4813549,6.276 26.7875922,7.704 C28.1717845,14.146 29.2885296,16 37.5569351,16 C43.7143452,15.964 46.9441273,14.844 46.9563768,7.19 C46.96046,5.248 48.3303612,4.906 49,4.354 L49,1.43 C45.1148702,0.664 40.4641473,0 36.1380359,0 Z M20.2239073,7.168 C19.0806216,12.492 18.8192992,14.052 11.4512312,14 C5.65518103,13.966 4.0831632,12.86 4.0831632,7.148 C4.0831632,4.116 4.0831632,2 12.8599225,2 C16.7899671,2 19.201075,2.882 20.0279155,4.056 C20.4668555,4.682 20.5342277,5.728 20.2239073,7.168 L20.2239073,7.168 Z M37.5467272,14 C30.1807008,14.052 29.9193784,12.492 28.7740511,7.168 C28.4657723,5.728 28.5311029,4.68 28.9720845,4.056 C29.7968835,2.882 32.2079913,2 36.1380359,2 C44.9147952,2 44.9147952,4.116 44.9147952,7.148 C44.9147952,12.86 43.3427774,13.966 37.5467272,14 L37.5467272,14 Z M35.9747094,3.7 C42.9936669,3.7 42.9936669,5.394 42.9936669,7.82 C42.9936669,8.284 42.969168,8.684 42.9426274,9.076 C41.9157118,5.624 40.2579476,4.812 35.9747094,3.7 Z M6.05533103,9.076 C6.02674889,8.684 6.00224991,8.284 6.00224991,7.82 C6.00224991,5.394 6.00224991,3.7 13.0212074,3.7 C8.74001083,4.812 7.08224657,5.624 6.05533103,9.076 L6.05533103,9.076 Z" id="Shape"></path>
        </g>
    </g>
</svg>